<svg width="15" height="15" viewBox="0 0 15 15" fill="none" xmlns="http://www.w3.org/2000/svg">
                    <path d="M8 3.41504C9.96875 3.41504 11.5938 5.04004 11.5938
                    7.00879C11.5938 9.00879 9.96875 10.6025 8 10.6025C6 10.6025
                    4.40625 9.00879 4.40625 7.00879C4.40625 5.04004 6 3.41504 8
                    3.41504ZM8 9.35254C9.28125 9.35254 10.3125 8.32129 10.3125
                    7.00879C10.3125 5.72754 9.28125 4.69629 8 4.69629C6.6875
                    4.69629 5.65625 5.72754 5.65625 7.00879C5.65625 8.32129
                    6.71875 9.35254 8 9.35254ZM12.5625 3.29004C12.5625 2.82129
                    12.1875 2.44629 11.7188 2.44629C11.25 2.44629 10.875 2.82129
                    10.875 3.29004C10.875 3.75879 11.25 4.13379 11.7188
                    4.13379C12.1875 4.13379 12.5625 3.75879 12.5625
                    3.29004ZM14.9375 4.13379C15 5.29004 15 8.75879 14.9375
                    9.91504C14.875 11.04 14.625 12.0088 13.8125 12.8525C13
                    13.665 12 13.915 10.875 13.9775C9.71875 14.04 6.25 14.04
                    5.09375 13.9775C3.96875 13.915 3 13.665 2.15625
                    12.8525C1.34375 12.0088 1.09375 11.04 1.03125
                    9.91504C0.96875 8.75879 0.96875 5.29004 1.03125
                    4.13379C1.09375 3.00879 1.34375 2.00879 2.15625 1.19629C3
                    0.383789 3.96875 0.133789 5.09375 0.0712891C6.25 0.00878906
                    9.71875 0.00878906 10.875 0.0712891C12 0.133789 13 0.383789
                    13.8125 1.19629C14.625 2.00879 14.875 3.00879 14.9375
                    4.13379ZM13.4375 11.1338C13.8125 10.2275 13.7188 8.04004
                    13.7188 7.00879C13.7188 6.00879 13.8125 3.82129 13.4375
                    2.88379C13.1875 2.29004 12.7188 1.79004 12.125
                    1.57129C11.1875 1.19629 9 1.29004 8 1.29004C6.96875 1.29004
                    4.78125 1.19629 3.875 1.57129C3.25 1.82129 2.78125 2.29004
                    2.53125 2.88379C2.15625 3.82129 2.25 6.00879 2.25
                    7.00879C2.25 8.04004 2.15625 10.2275 2.53125 11.1338C2.78125
                    11.7588 3.25 12.2275 3.875 12.4775C4.78125 12.8525 6.96875
                    12.7588 8 12.7588C9 12.7588 11.1875 12.8525 12.125
                    12.4775C12.7188 12.2275 13.2188 11.7588 13.4375 11.1338Z" fill="currentColor"></path>
                  </svg>