<svg width="16" height="16" viewBox="0 0 16 16" fill="none" xmlns="http://www.w3.org/2000/svg">
                  <path d="M0 8.00003C0 3.59378 3.5625 3.05176e-05 8 3.05176e-05C12.4062 3.05176e-05 16 3.59378 16 8.00003C16 12.4375 12.4062 16 8 16C3.5625 16 0 12.4375 0 8.00003ZM11.5938 6.62503C11.9375 6.28128 11.9375 5.75003 11.5938 5.40628C11.25 5.06253 10.7188 5.06253 10.375 5.40628L7 8.78128L5.59375 7.40628C5.25 7.06253 4.71875 7.06253 4.375 7.40628C4.03125 7.75003 4.03125 8.28128 4.375 8.62503L6.375 10.625C6.71875 10.9688 7.25 10.9688 7.59375 10.625L11.5938 6.62503Z" fill="#0E191E"></path>
                </svg>