<svg width="14" height="15" viewBox="0 0 14 15" fill="none" xmlns="http://www.w3.org/2000/svg">
                    <path d="M3.125
                  15.0088H0.21875V5.66504H3.125V15.0088ZM1.65625 4.41504C0.75
                  4.41504 0 3.63379 0 2.69629C0 1.41504 1.375 0.602539 2.5
                  1.25879C3.03125 1.54004 3.34375 2.10254 3.34375
                  2.69629C3.34375 3.63379 2.59375 4.41504 1.65625
                  4.41504ZM13.9688 15.0088H11.0938V10.4775C11.0938 9.38379
                  11.0625 8.00879 9.5625 8.00879C8.0625 8.00879 7.84375
                  9.16504 7.84375
                  10.3838V15.0088H4.9375V5.66504H7.71875V6.94629H7.75C8.15625
                  6.22754 9.09375 5.44629 10.5 5.44629C13.4375 5.44629 14
                  7.38379 14 9.88379V15.0088H13.9688Z" fill="currentColor"></path>
                  </svg>